<svg xmlns="http://www.w3.org/2000/svg">
  <!-- Empty Status Icon -->
  <symbol id="empty" viewBox="0 0 512 512">
    <path fill="currentColor" d="M256 48C141.1 48 48 141.1 48 256s93.1 208 208 208 208-93.1 208-208S370.9 48 256 48zm0 48c88.4 0 160 71.6 160 160s-71.6 160-160 160S96 344.4 96 256 167.6 96 256 96zm0 80c-44.2 0-80 35.8-80 80s35.8 80 80 80 80-35.8 80-80-35.8-80-80-80zm0 48c17.7 0 32 14.3 32 32s-14.3 32-32 32-32-14.3-32-32 14.3-32 32-32z"/>
  </symbol>
  
  <!-- Filled Status Icon -->
  <symbol id="filled" viewBox="0 0 512 512">
    <path fill="currentColor" d="M256 48C141.1 48 48 141.1 48 256s93.1 208 208 208 208-93.1 208-208S370.9 48 256 48zm0 128c44.2 0 80 35.8 80 80s-35.8 80-80 80-80-35.8-80-80 35.8-80 80-80z"/>
  </symbol>
</svg>