<svg xmlns="http://www.w3.org/2000/svg">
  <!-- Empty Status Icon -->
  <symbol id="empty" viewBox="0 0 512 512">
    <path fill="currentColor" d="M384 448H128c-35.3 0-64-28.7-64-64V128c0-35.3 28.7-64 64-64h256c35.3 0 64 28.7 64 64v256c0 35.3-28.7 64-64 64zM128 112c-8.8 0-16 7.2-16 16v256c0 8.8 7.2 16 16 16h256c8.8 0 16-7.2 16-16V128c0-8.8-7.2-16-16-16H128zm-64-64v64h48V96c0-8.8 7.2-16 16-16h256c8.8 0 16 7.2 16 16v256c0 8.8-7.2 16-16 16h-48v48h48c35.3 0 64-28.7 64-64V96c0-35.3-28.7-64-64-64H128c-35.3 0-64 28.7-64 64z"/>
  </symbol>
  
  <!-- Filled Status Icon -->
  <symbol id="filled" viewBox="0 0 512 512">
    <path fill="currentColor" d="M128 64c-35.3 0-64 28.7-64 64v256c0 35.3 28.7 64 64 64h256c35.3 0 64-28.7 64-64V128c0-35.3-28.7-64-64-64H128zm-64-64h256c35.3 0 64 28.7 64 64v256c0 35.3-28.7 64-64 64h-48v48c0 35.3-28.7 64-64 64H64c-35.3 0-64-28.7-64-64V256c0-35.3 28.7-64 64-64h48V64c0-35.3 28.7-64 64-64z"/>
  </symbol>
</svg>